<svg width="153" height="107" viewBox="0 0 343 107" fill="none" xmlns="http://www.w3.org/2000/svg">
<path fill-rule="evenodd" clip-rule="evenodd" d="M124.842 2.18798H218.651C220.498 2.18798 221.752 2.18968 222.721 2.26884C223.664 2.34591 224.143 2.48536 224.475 2.65449C225.28 3.06485 225.935 3.71964 226.345 4.52501C226.515 4.85696 226.654 5.33569 226.731 6.27897C226.81 7.24779 226.812 8.50173 226.812 10.3491V45.8105C226.812 47.6579 226.81 48.9118 226.731 49.8806C226.654 50.8239 226.515 51.3026 226.345 51.6346C225.935 52.44 225.28 53.0948 224.475 53.5051C224.143 53.6743 223.664 53.8137 222.721 53.8908C221.752 53.9699 220.498 53.9716 218.651 53.9716H212.19V56.1597H218.651C222.273 56.1597 224.085 56.1597 225.468 55.4547C226.685 54.8345 227.675 53.845 228.295 52.6279C229 51.2443 229 49.433 229 45.8105V10.3491C229 6.72656 229 4.91529 228.295 3.53166C227.675 2.31458 226.685 1.32507 225.468 0.704934C224.085 -6.10352e-05 222.273 -6.10352e-05 218.651 -6.10352e-05H124.842C121.219 -6.10352e-05 119.408 -6.10352e-05 118.024 0.704934C116.807 1.32507 115.818 2.31458 115.198 3.53166C114.493 4.91529 114.493 6.72657 114.493 10.3491V20.1879H116.681V10.3491C116.681 8.50174 116.682 7.2478 116.761 6.27897C116.839 5.33569 116.978 4.85696 117.147 4.52501C117.557 3.71964 118.212 3.06485 119.018 2.65449C119.35 2.48535 119.828 2.34591 120.772 2.26884C121.74 2.18968 122.994 2.18798 124.842 2.18798Z" fill="#99A0AF"/>
<path d="M119.072 27.3055C120.772 27.3055 122.071 27.7771 122.971 28.7202C123.881 29.6524 124.336 30.9904 124.336 32.7341C124.336 34.4778 123.881 35.8213 122.971 36.7645C122.071 37.6966 120.772 38.1627 119.072 38.1627H114.466V27.3055H119.072ZM118.792 36.0242C119.702 36.0242 120.371 35.75 120.799 35.2017C121.227 34.6533 121.441 33.8308 121.441 32.7341C121.441 31.6374 121.227 30.8149 120.799 30.2665C120.371 29.7182 119.702 29.444 118.792 29.444H117.295V36.0242H118.792Z" fill="#99A0AF"/>
<path d="M130.024 29.773C131.395 29.773 132.459 30.1514 133.215 30.9081C133.983 31.6539 134.367 32.7012 134.367 34.0501C134.367 35.3991 133.983 36.4519 133.215 37.2086C132.459 37.9544 131.395 38.3272 130.024 38.3272C128.653 38.3272 127.584 37.9544 126.816 37.2086C126.059 36.4519 125.681 35.3991 125.681 34.0501C125.681 32.7012 126.059 31.6539 126.816 30.9081C127.584 30.1514 128.653 29.773 130.024 29.773ZM130.024 31.7635C129.498 31.7635 129.108 31.9445 128.856 32.3064C128.604 32.6683 128.478 33.2496 128.478 34.0501C128.478 34.8507 128.604 35.432 128.856 35.7939C129.108 36.1558 129.498 36.3367 130.024 36.3367C130.55 36.3367 130.94 36.1558 131.192 35.7939C131.444 35.432 131.57 34.8507 131.57 34.0501C131.57 33.2496 131.444 32.6683 131.192 32.3064C130.94 31.9445 130.55 31.7635 130.024 31.7635Z" fill="#99A0AF"/>
<path d="M146.681 29.773C147.515 29.773 148.189 30.0253 148.704 30.5298C149.231 31.0342 149.494 31.7526 149.494 32.6848V38.1627H146.698V33.3263C146.698 32.3832 146.325 31.9116 145.579 31.9116C145.14 31.9116 144.789 32.0706 144.526 32.3886C144.263 32.7067 144.131 33.1673 144.131 33.7705V38.1627H141.335V33.3263C141.335 32.3832 140.962 31.9116 140.216 31.9116C139.799 31.9116 139.454 32.0706 139.18 32.3886C138.906 32.7067 138.768 33.1837 138.768 33.8198V38.1627H135.972V29.9375H138.472L138.555 31.5168C138.818 30.9465 139.185 30.5133 139.657 30.2172C140.128 29.9211 140.682 29.773 141.318 29.773C141.943 29.773 142.481 29.9156 142.93 30.2007C143.391 30.4859 143.72 30.8971 143.917 31.4345C144.181 30.8971 144.554 30.4859 145.036 30.2007C145.53 29.9156 146.078 29.773 146.681 29.773Z" fill="#99A0AF"/>
<path d="M152.857 28.9834C152.286 28.9834 151.87 28.8792 151.606 28.6709C151.354 28.4515 151.228 28.1115 151.228 27.6509C151.228 27.1794 151.354 26.8394 151.606 26.631C151.87 26.4117 152.286 26.302 152.857 26.302C153.427 26.302 153.838 26.4117 154.09 26.631C154.354 26.8394 154.485 27.1794 154.485 27.6509C154.485 28.1115 154.354 28.4515 154.09 28.6709C153.838 28.8792 153.427 28.9834 152.857 28.9834ZM154.255 38.1627H151.458V29.9375H154.255V38.1627Z" fill="#99A0AF"/>
<path d="M160.177 29.773C161.417 29.773 162.349 30.0088 162.974 30.4804C163.599 30.952 163.988 31.5661 164.142 32.3228L161.543 33.1783C161.433 32.2351 161.011 31.7635 160.276 31.7635C159.19 31.7635 158.647 32.5367 158.647 34.083C158.647 35.5855 159.19 36.3367 160.276 36.3367C161.055 36.3367 161.51 35.8926 161.641 35.0043L164.158 35.8103C164.038 36.5561 163.637 37.1647 162.957 37.6363C162.288 38.0969 161.4 38.3272 160.292 38.3272C158.867 38.3272 157.77 37.9544 157.002 37.2086C156.235 36.4629 155.851 35.41 155.851 34.0501C155.851 32.7012 156.229 31.6539 156.986 30.9081C157.754 30.1514 158.817 29.773 160.177 29.773Z" fill="#99A0AF"/>
<path d="M167.042 28.9834C166.472 28.9834 166.055 28.8792 165.792 28.6709C165.539 28.4515 165.413 28.1115 165.413 27.6509C165.413 27.1794 165.539 26.8394 165.792 26.631C166.055 26.4117 166.472 26.302 167.042 26.302C167.612 26.302 168.023 26.4117 168.276 26.631C168.539 26.8394 168.671 27.1794 168.671 27.6509C168.671 28.1115 168.539 28.4515 168.276 28.6709C168.023 28.8792 167.612 28.9834 167.042 28.9834ZM168.44 38.1627H165.644V29.9375H168.44V38.1627Z" fill="#99A0AF"/>
<path d="M173.195 35.3168C173.195 35.6897 173.249 35.9529 173.359 36.1064C173.469 36.26 173.666 36.3367 173.951 36.3367C174.215 36.3367 174.494 36.2874 174.79 36.1887L174.609 37.916C174.412 38.0366 174.154 38.1353 173.836 38.2121C173.518 38.2889 173.206 38.3272 172.899 38.3272C172.021 38.3272 171.385 38.1244 170.99 37.7186C170.595 37.3018 170.398 36.6383 170.398 35.7281V26.4501H173.195V35.3168Z" fill="#99A0AF"/>
<path d="M177.211 28.9834C176.641 28.9834 176.224 28.8792 175.961 28.6709C175.708 28.4515 175.582 28.1115 175.582 27.6509C175.582 27.1794 175.708 26.8394 175.961 26.631C176.224 26.4117 176.641 26.302 177.211 26.302C177.781 26.302 178.192 26.4117 178.445 26.631C178.708 26.8394 178.84 27.1794 178.84 27.6509C178.84 28.1115 178.708 28.4515 178.445 28.6709C178.192 28.8792 177.781 28.9834 177.211 28.9834ZM178.609 38.1627H175.813V29.9375H178.609V38.1627Z" fill="#99A0AF"/>
<path d="M188.611 33.935C188.611 34.3079 188.584 34.6149 188.529 34.8562H182.92C183.007 35.3717 183.194 35.75 183.479 35.9913C183.775 36.2326 184.164 36.3532 184.647 36.3532C185.053 36.3532 185.382 36.2764 185.634 36.1229C185.897 35.9694 186.072 35.7445 186.16 35.4484L188.43 36.1722C188.2 36.8741 187.75 37.4115 187.081 37.7844C186.423 38.1463 185.612 38.3272 184.647 38.3272C183.21 38.3272 182.108 37.9544 181.34 37.2086C180.584 36.4629 180.205 35.41 180.205 34.0501C180.205 32.6902 180.578 31.6374 181.324 30.8917C182.07 30.1459 183.128 29.773 184.499 29.773C185.826 29.773 186.84 30.1404 187.542 30.8752C188.255 31.599 188.611 32.619 188.611 33.935ZM184.482 31.7306C183.594 31.7306 183.068 32.268 182.903 33.3428H185.996C185.864 32.268 185.36 31.7306 184.482 31.7306Z" fill="#99A0AF"/>
<path d="M195.258 29.773C195.631 29.773 195.927 29.8334 196.146 29.954L195.85 32.3228C195.74 32.257 195.592 32.2022 195.406 32.1583C195.219 32.1035 195.022 32.0761 194.814 32.0761C194.287 32.0761 193.849 32.2461 193.498 32.5861C193.147 32.9151 192.971 33.3921 192.971 34.0172V38.1627H190.175V29.9375H192.642L192.757 31.7142C192.955 31.0891 193.262 30.612 193.679 30.283C194.106 29.943 194.633 29.773 195.258 29.773Z" fill="#99A0AF"/>
<path d="M118.166 43.9966C119.973 43.9966 121.275 44.7114 122.072 46.1409L121.015 46.9986C120.709 46.3247 120.341 45.8499 119.912 45.5742C119.493 45.2883 118.917 45.1453 118.181 45.1453C117.405 45.1453 116.793 45.3087 116.343 45.6354C115.904 45.952 115.685 46.3604 115.685 46.8608C115.685 47.1875 115.772 47.4581 115.945 47.6725C116.119 47.8869 116.405 48.0758 116.803 48.2392C117.211 48.3924 117.773 48.5302 118.488 48.6528C119.825 48.8774 120.77 49.2144 121.321 49.6636C121.883 50.1129 122.164 50.7358 122.164 51.5322C122.164 52.104 122 52.6095 121.673 53.0485C121.357 53.4774 120.903 53.8143 120.31 54.0594C119.718 54.2943 119.034 54.4117 118.258 54.4117C117.237 54.4117 116.364 54.2126 115.639 53.8143C114.924 53.4161 114.378 52.8852 114 52.2215L115.057 51.3637C115.333 51.9662 115.736 52.4359 116.267 52.7728C116.808 53.0996 117.482 53.263 118.289 53.263C119.085 53.263 119.718 53.12 120.188 52.8341C120.657 52.538 120.892 52.1244 120.892 51.5935C120.892 51.1442 120.688 50.7868 120.28 50.5213C119.871 50.2559 119.146 50.0312 118.105 49.8474C116.757 49.6126 115.802 49.2756 115.241 48.8366C114.679 48.3975 114.398 47.7848 114.398 46.9986C114.398 46.4574 114.551 45.9571 114.858 45.4976C115.164 45.0381 115.603 44.6756 116.175 44.4101C116.747 44.1345 117.41 43.9966 118.166 43.9966Z" fill="#99A0AF"/>
<path d="M127.733 46.4472C128.887 46.4472 129.79 46.7995 130.444 47.504C131.108 48.2086 131.44 49.1837 131.44 50.4294C131.44 51.6752 131.108 52.6503 130.444 53.3549C129.79 54.0594 128.887 54.4117 127.733 54.4117C126.579 54.4117 125.67 54.0594 125.007 53.3549C124.353 52.6503 124.026 51.6752 124.026 50.4294C124.026 49.1837 124.353 48.2086 125.007 47.504C125.67 46.7995 126.579 46.4472 127.733 46.4472ZM127.733 47.504C126.957 47.504 126.349 47.7644 125.91 48.2852C125.471 48.8059 125.252 49.5207 125.252 50.4294C125.252 51.3382 125.471 52.053 125.91 52.5737C126.349 53.0945 126.957 53.3549 127.733 53.3549C128.509 53.3549 129.117 53.0945 129.556 52.5737C129.995 52.053 130.214 51.3382 130.214 50.4294C130.214 49.5207 129.995 48.8059 129.556 48.2852C129.117 47.7644 128.509 47.504 127.733 47.504Z" fill="#99A0AF"/>
<path d="M137.051 46.4472C137.817 46.4472 138.46 46.6259 138.981 46.9833C139.512 47.3304 139.926 47.8308 140.222 48.4843L139.058 49.0357C138.731 48.0248 138.052 47.5194 137.021 47.5194C136.255 47.5194 135.652 47.7797 135.213 48.3005C134.785 48.811 134.57 49.5207 134.57 50.4294C134.57 51.3382 134.785 52.053 135.213 52.5737C135.652 53.0843 136.255 53.3395 137.021 53.3395C137.613 53.3395 138.088 53.2068 138.445 52.9413C138.813 52.6656 139.053 52.2725 139.165 51.762L140.298 52.1602C140.033 52.8749 139.625 53.4314 139.073 53.8297C138.522 54.2177 137.848 54.4117 137.051 54.4117C135.898 54.4117 134.989 54.0594 134.325 53.3549C133.672 52.6503 133.345 51.6752 133.345 50.4294C133.345 49.1837 133.672 48.2086 134.325 47.504C134.989 46.7995 135.898 46.4472 137.051 46.4472Z" fill="#99A0AF"/>
<path d="M143.078 45.13C142.802 45.13 142.577 45.0483 142.404 44.8849C142.24 44.7114 142.159 44.4867 142.159 44.211C142.159 43.9353 142.24 43.7158 142.404 43.5524C142.577 43.3788 142.802 43.2921 143.078 43.2921C143.353 43.2921 143.573 43.3788 143.736 43.5524C143.91 43.7158 143.997 43.9353 143.997 44.211C143.997 44.4867 143.91 44.7114 143.736 44.8849C143.573 45.0483 143.353 45.13 143.078 45.13ZM143.69 54.2585H142.465V46.6004H143.69V54.2585Z" fill="#99A0AF"/>
<path d="M153.104 50.0312C153.104 50.3171 153.084 50.603 153.043 50.8889H147.269C147.34 51.665 147.595 52.2674 148.034 52.6963C148.484 53.1251 149.061 53.3395 149.765 53.3395C150.327 53.3395 150.791 53.2425 151.159 53.0485C151.537 52.8545 151.792 52.5737 151.925 52.2061L152.951 52.7422C152.645 53.2834 152.236 53.6969 151.726 53.9828C151.215 54.2687 150.562 54.4117 149.765 54.4117C148.611 54.4117 147.702 54.0594 147.039 53.3549C146.385 52.6503 146.059 51.6752 146.059 50.4294C146.059 49.1837 146.37 48.2086 146.993 47.504C147.626 46.7995 148.519 46.4472 149.673 46.4472C150.388 46.4472 151.006 46.6055 151.526 46.922C152.047 47.2386 152.44 47.6674 152.706 48.2086C152.971 48.7498 153.104 49.3573 153.104 50.0312ZM149.673 47.5194C148.999 47.5194 148.453 47.7185 148.034 48.1167C147.626 48.5149 147.376 49.0765 147.284 49.8015H151.925C151.843 49.0867 151.608 48.5302 151.22 48.132C150.832 47.7236 150.316 47.5194 149.673 47.5194ZM151.373 42.7713L149.872 45.3291H148.877L150.041 42.7713H151.373Z" fill="#99A0AF"/>
<path d="M159.895 53.7224C159.385 54.1819 158.726 54.4117 157.92 54.4117C157.297 54.4117 156.786 54.2432 156.388 53.9062C156 53.5693 155.801 53.0536 155.791 52.3593V47.6572H154.259V46.6004H155.791V44.7624L157.016 44.4255V46.6004H159.849V47.6572H157.016V52.1449C157.016 52.5125 157.118 52.7933 157.322 52.9873C157.537 53.1711 157.817 53.263 158.165 53.263C158.655 53.263 159.089 53.0741 159.467 52.6963L159.895 53.7224Z" fill="#99A0AF"/>
<path d="M168.196 50.0312C168.196 50.3171 168.176 50.603 168.135 50.8889H162.36C162.432 51.665 162.687 52.2674 163.126 52.6963C163.576 53.1251 164.152 53.3395 164.857 53.3395C165.419 53.3395 165.883 53.2425 166.251 53.0485C166.629 52.8545 166.884 52.5737 167.017 52.2061L168.043 52.7422C167.736 53.2834 167.328 53.6969 166.817 53.9828C166.307 54.2687 165.653 54.4117 164.857 54.4117C163.703 54.4117 162.794 54.0594 162.131 53.3549C161.477 52.6503 161.15 51.6752 161.15 50.4294C161.15 49.1837 161.462 48.2086 162.085 47.504C162.718 46.7995 163.611 46.4472 164.765 46.4472C165.48 46.4472 166.098 46.6055 166.618 46.922C167.139 47.2386 167.532 47.6674 167.798 48.2086C168.063 48.7498 168.196 49.3573 168.196 50.0312ZM164.765 47.5194C164.091 47.5194 163.545 47.7185 163.126 48.1167C162.718 48.5149 162.468 49.0765 162.376 49.8015H167.017C166.935 49.0867 166.7 48.5302 166.312 48.132C165.924 47.7236 165.408 47.5194 164.765 47.5194ZM166.465 42.7713L164.964 45.3291H163.969L165.133 42.7713H166.465Z" fill="#99A0AF"/>
<path d="M214.038 7.63683C214.414 7.42387 214.874 7.42387 215.249 7.63683L217.716 9.03496L220.16 10.4721C220.532 10.691 220.762 11.0894 220.766 11.5212L220.788 14.3565L220.766 17.1918C220.762 17.6237 220.532 18.022 220.16 18.2409L217.716 19.6781L215.249 21.0762C214.874 21.2892 214.414 21.2892 214.038 21.0762L211.571 19.6781L209.127 18.2409C208.755 18.022 208.525 17.6237 208.521 17.1918L208.499 14.3565L208.521 11.5212C208.525 11.0894 208.755 10.691 209.127 10.4721L211.571 9.03496L214.038 7.63683Z" fill="#99A0AF"/>
<path d="M82.4352 92.1097C83.4652 92.1097 84.3652 92.3197 85.1352 92.7397C85.9152 93.1597 86.5152 93.7547 86.9352 94.5247C87.3552 95.2947 87.5652 96.1897 87.5652 97.2097C87.5652 98.2297 87.3552 99.1247 86.9352 99.8947C86.5152 100.665 85.9152 101.26 85.1352 101.68C84.3652 102.1 83.4652 102.31 82.4352 102.31C81.4052 102.31 80.5002 102.1 79.7202 101.68C78.9502 101.26 78.3552 100.665 77.9352 99.8947C77.5152 99.1247 77.3052 98.2297 77.3052 97.2097C77.3052 96.1897 77.5152 95.2947 77.9352 94.5247C78.3552 93.7547 78.9502 93.1597 79.7202 92.7397C80.5002 92.3197 81.4052 92.1097 82.4352 92.1097ZM82.4352 93.0847C81.6152 93.0847 80.9002 93.2547 80.2902 93.5947C79.6802 93.9347 79.2052 94.4147 78.8652 95.0347C78.5352 95.6547 78.3702 96.3797 78.3702 97.2097C78.3702 98.0397 78.5352 98.7647 78.8652 99.3847C79.2052 100.005 79.6802 100.485 80.2902 100.825C80.9002 101.165 81.6152 101.335 82.4352 101.335C83.2552 101.335 83.9702 101.165 84.5802 100.825C85.1902 100.485 85.6602 100.005 85.9902 99.3847C86.3302 98.7647 86.5002 98.0397 86.5002 97.2097C86.5002 96.3797 86.3302 95.6547 85.9902 95.0347C85.6602 94.4147 85.1902 93.9347 84.5802 93.5947C83.9702 93.2547 83.2552 93.0847 82.4352 93.0847ZM82.5402 94.4647C83.1202 94.4647 83.6052 94.5897 83.9952 94.8397C84.3852 95.0797 84.6802 95.4297 84.8802 95.8897L84.0102 96.3247C83.7602 95.6847 83.2652 95.3647 82.5252 95.3647C81.9952 95.3647 81.5752 95.5297 81.2652 95.8597C80.9652 96.1897 80.8152 96.6497 80.8152 97.2397C80.8152 97.8297 80.9652 98.2897 81.2652 98.6197C81.5752 98.9497 81.9952 99.1147 82.5252 99.1147C83.3352 99.1147 83.8652 98.7797 84.1152 98.1097L84.9402 98.4397C84.7502 98.9397 84.4502 99.3297 84.0402 99.6097C83.6302 99.8797 83.1302 100.015 82.5402 100.015C81.6902 100.015 81.0202 99.7697 80.5302 99.2797C80.0502 98.7797 79.8102 98.0997 79.8102 97.2397C79.8102 96.3797 80.0502 95.7047 80.5302 95.2147C81.0202 94.7147 81.6902 94.4647 82.5402 94.4647ZM94.8121 101.185C96.1821 100.175 97.2321 99.3447 97.9621 98.6947C98.6921 98.0347 99.2121 97.4397 99.5221 96.9097C99.8421 96.3697 100.002 95.8047 100.002 95.2147C100.002 94.6247 99.8121 94.1497 99.4321 93.7897C99.0521 93.4197 98.5421 93.2347 97.9021 93.2347C97.2321 93.2347 96.6871 93.4547 96.2671 93.8947C95.8571 94.3347 95.6171 94.9297 95.5471 95.6797L94.4971 95.0497C94.6271 94.1597 94.9871 93.4497 95.5771 92.9197C96.1771 92.3797 96.9671 92.1097 97.9471 92.1097C98.6071 92.1097 99.1871 92.2397 99.6871 92.4997C100.197 92.7597 100.587 93.1247 100.857 93.5947C101.127 94.0647 101.262 94.6047 101.262 95.2147C101.262 95.8547 101.107 96.4697 100.797 97.0597C100.497 97.6497 100.002 98.2697 99.3121 98.9197C98.6221 99.5697 97.6921 100.285 96.5221 101.065V101.08C97.1821 101.05 97.6771 101.035 98.0071 101.035H101.472V102.16H94.8121V101.185ZM107.112 102.31C105.912 102.31 104.997 101.875 104.367 101.005C103.737 100.135 103.422 98.8697 103.422 97.2097C103.422 95.5497 103.737 94.2847 104.367 93.4147C104.997 92.5447 105.912 92.1097 107.112 92.1097C108.312 92.1097 109.227 92.5447 109.857 93.4147C110.487 94.2847 110.802 95.5497 110.802 97.2097C110.802 98.8697 110.487 100.135 109.857 101.005C109.227 101.875 108.312 102.31 107.112 102.31ZM107.112 101.23C107.902 101.23 108.507 100.89 108.927 100.21C109.347 99.5197 109.557 98.5197 109.557 97.2097C109.557 95.8997 109.347 94.9047 108.927 94.2247C108.507 93.5347 107.902 93.1897 107.112 93.1897C106.322 93.1897 105.717 93.5347 105.297 94.2247C104.877 94.9047 104.667 95.8997 104.667 97.2097C104.667 98.5197 104.877 99.5197 105.297 100.21C105.717 100.89 106.322 101.23 107.112 101.23ZM112.888 101.185C114.258 100.175 115.308 99.3447 116.038 98.6947C116.768 98.0347 117.288 97.4397 117.598 96.9097C117.918 96.3697 118.078 95.8047 118.078 95.2147C118.078 94.6247 117.888 94.1497 117.508 93.7897C117.128 93.4197 116.618 93.2347 115.978 93.2347C115.308 93.2347 114.763 93.4547 114.343 93.8947C113.933 94.3347 113.693 94.9297 113.623 95.6797L112.573 95.0497C112.703 94.1597 113.063 93.4497 113.653 92.9197C114.253 92.3797 115.043 92.1097 116.023 92.1097C116.683 92.1097 117.263 92.2397 117.763 92.4997C118.273 92.7597 118.663 93.1247 118.933 93.5947C119.203 94.0647 119.338 94.6047 119.338 95.2147C119.338 95.8547 119.183 96.4697 118.873 97.0597C118.573 97.6497 118.078 98.2697 117.388 98.9197C116.698 99.5697 115.768 100.285 114.598 101.065V101.08C115.258 101.05 115.753 101.035 116.083 101.035H119.548V102.16H112.888V101.185ZM125.128 92.2597V102.16H123.928V94.8997C123.928 94.6897 123.938 94.3047 123.958 93.7447C123.618 94.0747 123.223 94.3647 122.773 94.6147C122.323 94.8547 121.863 95.0297 121.393 95.1397L121.078 94.0447C121.318 94.0147 121.643 93.9047 122.053 93.7147C122.463 93.5147 122.858 93.2847 123.238 93.0247C123.618 92.7547 123.898 92.4997 124.078 92.2597H125.128ZM136.588 92.2597C138.148 92.2597 139.368 92.6897 140.248 93.5497C141.128 94.4097 141.568 95.6297 141.568 97.2097C141.568 98.7897 141.128 100.01 140.248 100.87C139.368 101.73 138.148 102.16 136.588 102.16H133.393V92.2597H136.588ZM136.708 101.035C137.838 101.035 138.718 100.7 139.348 100.03C139.988 99.3497 140.308 98.4097 140.308 97.2097C140.308 96.0097 139.988 95.0747 139.348 94.4047C138.718 93.7247 137.838 93.3847 136.708 93.3847H134.593V101.035H136.708ZM147.144 94.5097C148.274 94.5097 149.159 94.8547 149.799 95.5447C150.449 96.2347 150.774 97.1897 150.774 98.4097C150.774 99.6297 150.449 100.585 149.799 101.275C149.159 101.965 148.274 102.31 147.144 102.31C146.014 102.31 145.124 101.965 144.474 101.275C143.834 100.585 143.514 99.6297 143.514 98.4097C143.514 97.1897 143.834 96.2347 144.474 95.5447C145.124 94.8547 146.014 94.5097 147.144 94.5097ZM147.144 95.5447C146.384 95.5447 145.789 95.7997 145.359 96.3097C144.929 96.8197 144.714 97.5197 144.714 98.4097C144.714 99.2997 144.929 99.9997 145.359 100.51C145.789 101.02 146.384 101.275 147.144 101.275C147.904 101.275 148.499 101.02 148.929 100.51C149.359 99.9997 149.574 99.2997 149.574 98.4097C149.574 97.5197 149.359 96.8197 148.929 96.3097C148.499 95.7997 147.904 95.5447 147.144 95.5447ZM161.82 94.5097C162.32 94.5097 162.785 94.6147 163.215 94.8247C163.655 95.0247 164.01 95.3397 164.28 95.7697C164.55 96.1997 164.685 96.7297 164.685 97.3597V102.16H163.485V97.4797C163.485 96.8297 163.32 96.3497 162.99 96.0397C162.67 95.7197 162.245 95.5597 161.715 95.5597C161.315 95.5597 160.945 95.6597 160.605 95.8597C160.275 96.0497 160.005 96.3347 159.795 96.7147C159.595 97.0847 159.495 97.5297 159.495 98.0497V102.16H158.295V97.4797C158.295 96.8297 158.13 96.3497 157.8 96.0397C157.48 95.7197 157.055 95.5597 156.525 95.5597C156.165 95.5597 155.815 95.6547 155.475 95.8447C155.135 96.0247 154.855 96.3097 154.635 96.6997C154.415 97.0897 154.305 97.5747 154.305 98.1547V102.16H153.105V94.6597H154.155L154.23 95.8297C154.49 95.3897 154.83 95.0597 155.25 94.8397C155.68 94.6197 156.14 94.5097 156.63 94.5097C157.18 94.5097 157.685 94.6347 158.145 94.8847C158.615 95.1347 158.97 95.4997 159.21 95.9797C159.43 95.4997 159.79 95.1347 160.29 94.8847C160.79 94.6347 161.3 94.5097 161.82 94.5097ZM168.002 93.2197C167.732 93.2197 167.512 93.1397 167.342 92.9797C167.182 92.8097 167.102 92.5897 167.102 92.3197C167.102 92.0497 167.182 91.8347 167.342 91.6747C167.512 91.5047 167.732 91.4197 168.002 91.4197C168.272 91.4197 168.487 91.5047 168.647 91.6747C168.817 91.8347 168.902 92.0497 168.902 92.3197C168.902 92.5897 168.817 92.8097 168.647 92.9797C168.487 93.1397 168.272 93.2197 168.002 93.2197ZM168.602 102.16H167.402V94.6597H168.602V102.16ZM174.551 94.5097C175.301 94.5097 175.931 94.6847 176.441 95.0347C176.961 95.3747 177.366 95.8647 177.656 96.5047L176.516 97.0447C176.196 96.0547 175.531 95.5597 174.521 95.5597C173.771 95.5597 173.181 95.8147 172.751 96.3247C172.331 96.8247 172.121 97.5197 172.121 98.4097C172.121 99.2997 172.331 99.9997 172.751 100.51C173.181 101.01 173.771 101.26 174.521 101.26C175.101 101.26 175.566 101.13 175.916 100.87C176.276 100.6 176.511 100.215 176.621 99.7147L177.731 100.105C177.471 100.805 177.071 101.35 176.531 101.74C175.991 102.12 175.331 102.31 174.551 102.31C173.421 102.31 172.531 101.965 171.881 101.275C171.241 100.585 170.921 99.6297 170.921 98.4097C170.921 97.1897 171.241 96.2347 171.881 95.5447C172.531 94.8547 173.421 94.5097 174.551 94.5097ZM180.453 93.2197C180.183 93.2197 179.963 93.1397 179.793 92.9797C179.633 92.8097 179.553 92.5897 179.553 92.3197C179.553 92.0497 179.633 91.8347 179.793 91.6747C179.963 91.5047 180.183 91.4197 180.453 91.4197C180.723 91.4197 180.938 91.5047 181.098 91.6747C181.268 91.8347 181.353 92.0497 181.353 92.3197C181.353 92.5897 181.268 92.8097 181.098 92.9797C180.938 93.1397 180.723 93.2197 180.453 93.2197ZM181.053 102.16H179.853V94.6597H181.053V102.16ZM184.977 100.15C184.977 100.53 185.032 100.795 185.142 100.945C185.262 101.085 185.477 101.155 185.787 101.155C185.997 101.155 186.177 101.14 186.327 101.11C186.487 101.08 186.672 101.025 186.882 100.945L186.687 102.1C186.357 102.24 185.987 102.31 185.577 102.31C184.967 102.31 184.512 102.145 184.212 101.815C183.922 101.485 183.777 100.98 183.777 100.3V91.2097H184.977V100.15ZM189.022 93.2197C188.752 93.2197 188.532 93.1397 188.362 92.9797C188.202 92.8097 188.122 92.5897 188.122 92.3197C188.122 92.0497 188.202 91.8347 188.362 91.6747C188.532 91.5047 188.752 91.4197 189.022 91.4197C189.292 91.4197 189.507 91.5047 189.667 91.6747C189.837 91.8347 189.922 92.0497 189.922 92.3197C189.922 92.5897 189.837 92.8097 189.667 92.9797C189.507 93.1397 189.292 93.2197 189.022 93.2197ZM189.622 102.16H188.422V94.6597H189.622V102.16ZM198.842 98.0197C198.842 98.2997 198.822 98.5797 198.782 98.8597H193.127C193.197 99.6197 193.447 100.21 193.877 100.63C194.317 101.05 194.882 101.26 195.572 101.26C196.122 101.26 196.577 101.165 196.937 100.975C197.307 100.785 197.557 100.51 197.687 100.15L198.692 100.675C198.392 101.205 197.992 101.61 197.492 101.89C196.992 102.17 196.352 102.31 195.572 102.31C194.442 102.31 193.552 101.965 192.902 101.275C192.262 100.585 191.942 99.6297 191.942 98.4097C191.942 97.1897 192.247 96.2347 192.857 95.5447C193.477 94.8547 194.352 94.5097 195.482 94.5097C196.182 94.5097 196.787 94.6647 197.297 94.9747C197.807 95.2847 198.192 95.7047 198.452 96.2347C198.712 96.7647 198.842 97.3597 198.842 98.0197ZM195.482 95.5597C194.822 95.5597 194.287 95.7547 193.877 96.1447C193.477 96.5347 193.232 97.0847 193.142 97.7947H197.687C197.607 97.0947 197.377 96.5497 196.997 96.1597C196.617 95.7597 196.112 95.5597 195.482 95.5597ZM204.663 94.5097C205.023 94.5097 205.298 94.5597 205.488 94.6597L205.248 95.8297C205.008 95.6997 204.693 95.6347 204.303 95.6347C203.983 95.6347 203.668 95.7297 203.358 95.9197C203.058 96.0997 202.808 96.3797 202.608 96.7597C202.418 97.1297 202.323 97.5797 202.323 98.1097V102.16H201.123V94.6597H202.098L202.263 95.8897C202.683 94.9697 203.483 94.5097 204.663 94.5097ZM211.052 98.8597H206.102V97.6147H211.052V98.8597ZM216.832 92.1097C218.602 92.1097 219.877 92.8097 220.657 94.2097L219.622 95.0497C219.322 94.3897 218.962 93.9247 218.542 93.6547C218.132 93.3747 217.567 93.2347 216.847 93.2347C216.087 93.2347 215.487 93.3947 215.047 93.7147C214.617 94.0247 214.402 94.4247 214.402 94.9147C214.402 95.2347 214.487 95.4997 214.657 95.7097C214.827 95.9197 215.107 96.1047 215.497 96.2647C215.897 96.4147 216.447 96.5497 217.147 96.6697C218.457 96.8897 219.382 97.2197 219.922 97.6597C220.472 98.0997 220.747 98.7097 220.747 99.4897C220.747 100.05 220.587 100.545 220.267 100.975C219.957 101.395 219.512 101.725 218.932 101.965C218.352 102.195 217.682 102.31 216.922 102.31C215.922 102.31 215.067 102.115 214.357 101.725C213.657 101.335 213.122 100.815 212.752 100.165L213.787 99.3247C214.057 99.9147 214.452 100.375 214.972 100.705C215.502 101.025 216.162 101.185 216.952 101.185C217.732 101.185 218.352 101.045 218.812 100.765C219.272 100.475 219.502 100.07 219.502 99.5497C219.502 99.1097 219.302 98.7597 218.902 98.4997C218.502 98.2397 217.792 98.0197 216.772 97.8397C215.452 97.6097 214.517 97.2797 213.967 96.8497C213.417 96.4197 213.142 95.8197 213.142 95.0497C213.142 94.5197 213.292 94.0297 213.592 93.5797C213.892 93.1297 214.322 92.7747 214.882 92.5147C215.442 92.2447 216.092 92.1097 216.832 92.1097ZM226.202 94.5097C227.332 94.5097 228.217 94.8547 228.857 95.5447C229.507 96.2347 229.832 97.1897 229.832 98.4097C229.832 99.6297 229.507 100.585 228.857 101.275C228.217 101.965 227.332 102.31 226.202 102.31C225.072 102.31 224.182 101.965 223.532 101.275C222.892 100.585 222.572 99.6297 222.572 98.4097C222.572 97.1897 222.892 96.2347 223.532 95.5447C224.182 94.8547 225.072 94.5097 226.202 94.5097ZM226.202 95.5447C225.442 95.5447 224.847 95.7997 224.417 96.3097C223.987 96.8197 223.772 97.5197 223.772 98.4097C223.772 99.2997 223.987 99.9997 224.417 100.51C224.847 101.02 225.442 101.275 226.202 101.275C226.962 101.275 227.557 101.02 227.987 100.51C228.417 99.9997 228.632 99.2997 228.632 98.4097C228.632 97.5197 228.417 96.8197 227.987 96.3097C227.557 95.7997 226.962 95.5447 226.202 95.5447ZM235.328 94.5097C236.078 94.5097 236.708 94.6847 237.218 95.0347C237.738 95.3747 238.143 95.8647 238.433 96.5047L237.293 97.0447C236.973 96.0547 236.308 95.5597 235.298 95.5597C234.548 95.5597 233.958 95.8147 233.528 96.3247C233.108 96.8247 232.898 97.5197 232.898 98.4097C232.898 99.2997 233.108 99.9997 233.528 100.51C233.958 101.01 234.548 101.26 235.298 101.26C235.878 101.26 236.343 101.13 236.693 100.87C237.053 100.6 237.288 100.215 237.398 99.7147L238.508 100.105C238.248 100.805 237.848 101.35 237.308 101.74C236.768 102.12 236.108 102.31 235.328 102.31C234.198 102.31 233.308 101.965 232.658 101.275C232.018 100.585 231.698 99.6297 231.698 98.4097C231.698 97.1897 232.018 96.2347 232.658 95.5447C233.308 94.8547 234.198 94.5097 235.328 94.5097ZM241.229 93.2197C240.959 93.2197 240.739 93.1397 240.569 92.9797C240.409 92.8097 240.329 92.5897 240.329 92.3197C240.329 92.0497 240.409 91.8347 240.569 91.6747C240.739 91.5047 240.959 91.4197 241.229 91.4197C241.499 91.4197 241.714 91.5047 241.874 91.6747C242.044 91.8347 242.129 92.0497 242.129 92.3197C242.129 92.5897 242.044 92.8097 241.874 92.9797C241.714 93.1397 241.499 93.2197 241.229 93.2197ZM241.829 102.16H240.629V94.6597H241.829V102.16ZM251.049 98.0197C251.049 98.2997 251.029 98.5797 250.989 98.8597H245.334C245.404 99.6197 245.654 100.21 246.084 100.63C246.524 101.05 247.089 101.26 247.779 101.26C248.329 101.26 248.784 101.165 249.144 100.975C249.514 100.785 249.764 100.51 249.894 100.15L250.899 100.675C250.599 101.205 250.199 101.61 249.699 101.89C249.199 102.17 248.559 102.31 247.779 102.31C246.649 102.31 245.759 101.965 245.109 101.275C244.469 100.585 244.149 99.6297 244.149 98.4097C244.149 97.1897 244.454 96.2347 245.064 95.5447C245.684 94.8547 246.559 94.5097 247.689 94.5097C248.389 94.5097 248.994 94.6647 249.504 94.9747C250.014 95.2847 250.399 95.7047 250.659 96.2347C250.919 96.7647 251.049 97.3597 251.049 98.0197ZM247.689 95.5597C247.029 95.5597 246.494 95.7547 246.084 96.1447C245.684 96.5347 245.439 97.0847 245.349 97.7947H249.894C249.814 97.0947 249.584 96.5497 249.204 96.1597C248.824 95.7597 248.319 95.5597 247.689 95.5597ZM249.354 90.9097L247.884 93.4147H246.909L248.049 90.9097H249.354ZM257.7 101.635C257.2 102.085 256.555 102.31 255.765 102.31C255.155 102.31 254.655 102.145 254.265 101.815C253.885 101.485 253.69 100.98 253.68 100.3V95.6947H252.18V94.6597H253.68V92.8597L254.88 92.5297V94.6597H257.655V95.6947H254.88V100.09C254.88 100.45 254.98 100.725 255.18 100.915C255.39 101.095 255.665 101.185 256.005 101.185C256.485 101.185 256.91 101 257.28 100.63L257.7 101.635ZM265.829 98.0197C265.829 98.2997 265.809 98.5797 265.769 98.8597H260.114C260.184 99.6197 260.434 100.21 260.864 100.63C261.304 101.05 261.869 101.26 262.559 101.26C263.109 101.26 263.564 101.165 263.924 100.975C264.294 100.785 264.544 100.51 264.674 100.15L265.679 100.675C265.379 101.205 264.979 101.61 264.479 101.89C263.979 102.17 263.339 102.31 262.559 102.31C261.429 102.31 260.539 101.965 259.889 101.275C259.249 100.585 258.929 99.6297 258.929 98.4097C258.929 97.1897 259.234 96.2347 259.844 95.5447C260.464 94.8547 261.339 94.5097 262.469 94.5097C263.169 94.5097 263.774 94.6647 264.284 94.9747C264.794 95.2847 265.179 95.7047 265.439 96.2347C265.699 96.7647 265.829 97.3597 265.829 98.0197ZM262.469 95.5597C261.809 95.5597 261.274 95.7547 260.864 96.1447C260.464 96.5347 260.219 97.0847 260.129 97.7947H264.674C264.594 97.0947 264.364 96.5497 263.984 96.1597C263.604 95.7597 263.099 95.5597 262.469 95.5597ZM264.134 90.9097L262.664 93.4147H261.689L262.829 90.9097H264.134Z" fill="#99A0AF"/>
</svg>
