<svg width="57" height="56" viewBox="0 0 57 56" fill="none" xmlns="http://www.w3.org/2000/svg">
<path d="M25.7703 3.26378C27.1534 2.47984 28.8466 2.47984 30.2297 3.26378L39.31 8.41051L48.3074 13.7009C49.6778 14.5068 50.5244 15.9731 50.537 17.5628L50.62 28L50.537 38.4372C50.5244 40.0269 49.6778 41.4932 48.3074 42.2991L39.31 47.5895L30.2297 52.7362C28.8466 53.5202 27.1534 53.5202 25.7703 52.7362L16.69 47.5895L7.69264 42.2991C6.32219 41.4932 5.4756 40.0269 5.46297 38.4372L5.38 28L5.46297 17.5628C5.4756 15.9731 6.32219 14.5068 7.69264 13.7009L16.69 8.41051L25.7703 3.26378Z" fill="#0066FF"/>
<path fill-rule="evenodd" clip-rule="evenodd" d="M35.0007 27H29.0007V21C29.0007 20.4477 28.553 20 28.0007 20C27.4484 20 27.0007 20.4477 27.0007 21V27H21.0007C20.4484 27 20.0007 27.4477 20.0007 28C20.0007 28.5523 20.4484 29 21.0007 29H27.0007V35C27.0007 35.5523 27.4484 36 28.0007 36C28.553 36 29.0007 35.5523 29.0007 35V29H35.0007C35.553 29 36.0007 28.5523 36.0007 28C36.0007 27.4477 35.553 27 35.0007 27Z" fill="white"/>
</svg>
