<svg width="77" height="52" viewBox="0 0 77 52" fill="none" xmlns="http://www.w3.org/2000/svg">
<path d="M48.5203 1.26378C49.9034 0.479844 51.5966 0.479843 52.9797 1.26378L62.06 6.41051L71.0574 11.7009C72.4278 12.5068 73.2744 13.9731 73.287 15.5628L73.37 26L73.287 36.4372C73.2744 38.0269 72.4278 39.4932 71.0574 40.2991L62.06 45.5895L52.9797 50.7362C51.5966 51.5202 49.9034 51.5202 48.5203 50.7362L39.44 45.5895L30.4426 40.2991C29.0722 39.4932 28.2256 38.0269 28.213 36.4372L28.13 26L28.213 15.5628C28.2256 13.9731 29.0722 12.5068 30.4426 11.7009L39.44 6.41051L48.5203 1.26378Z" fill="#0066FF"/>
<path d="M24.5203 1.26378C25.9034 0.479844 27.5966 0.479843 28.9797 1.26378L38.06 6.41051L47.0574 11.7009C48.4278 12.5068 49.2744 13.9731 49.287 15.5628L49.37 26L49.287 36.4372C49.2744 38.0269 48.4278 39.4932 47.0574 40.2991L38.06 45.5895L28.9797 50.7362C27.5966 51.5202 25.9034 51.5202 24.5203 50.7362L15.44 45.5895L6.44264 40.2991C5.07219 39.4932 4.2256 38.0269 4.21297 36.4372L4.13 26L4.21297 15.5628C4.2256 13.9731 5.07219 12.5068 6.44264 11.7009L15.44 6.41051L24.5203 1.26378Z" fill="#EBEDF1"/>
<path fill-rule="evenodd" clip-rule="evenodd" d="M19.75 27H31.61L27.98 31.36C27.6265 31.7853 27.6847 32.4165 28.11 32.77C28.5353 33.1235 29.1665 33.0653 29.52 32.64L34.52 26.64C34.5536 26.5923 34.5837 26.5421 34.61 26.49C34.61 26.44 34.66 26.41 34.68 26.36C34.7253 26.2453 34.7491 26.1233 34.75 26V26C34.7491 25.8767 34.7253 25.7547 34.68 25.64C34.68 25.59 34.63 25.56 34.61 25.51C34.5837 25.4579 34.5536 25.4077 34.52 25.36L29.52 19.36V19.36C29.3296 19.1315 29.0474 18.9995 28.75 19V19C28.5163 18.9995 28.2899 19.0809 28.11 19.23L28.11 19.23C27.6848 19.5825 27.6259 20.2129 27.9784 20.6381C27.9789 20.6387 27.9795 20.6394 27.98 20.64L31.61 25H19.75C19.1977 25 18.75 25.4477 18.75 26C18.75 26.5523 19.1977 27 19.75 27L19.75 27Z" fill="#0066FF"/>
</svg>
