<svg width="104" height="52" viewBox="0 0 104 52" fill="none" xmlns="http://www.w3.org/2000/svg">
<path fill-rule="evenodd" clip-rule="evenodd" d="M9.80466 2.58478H94.6407C96.3114 2.58478 97.4454 2.58632 98.3215 2.65791C99.1746 2.7276 99.6075 2.85371 99.9077 3.00667C100.636 3.37778 101.228 3.96993 101.599 4.69827C101.752 4.99847 101.878 5.4314 101.948 6.28446C102.02 7.16061 102.021 8.29461 102.021 9.96529V42.0347C102.021 43.7054 102.02 44.8394 101.948 45.7155C101.878 46.5686 101.752 47.0015 101.599 47.3017C101.228 48.0301 100.636 48.6222 99.9077 48.9933C99.6075 49.1463 99.1746 49.2724 98.3215 49.3421C97.4454 49.4137 96.3114 49.4152 94.6407 49.4152H88.7981V51.394H94.6407C97.9168 51.394 99.5548 51.394 100.806 50.7564C101.907 50.1956 102.802 49.3007 103.362 48.2001C104 46.9488 104 45.3107 104 42.0347V9.96529C104 6.68924 104 5.05122 103.362 3.79993C102.802 2.69927 101.907 1.80441 100.806 1.24359C99.5548 0.606033 97.9168 0.606033 94.6407 0.606033H9.80466C6.52861 0.606033 4.89059 0.606033 3.6393 1.24359C2.53864 1.80441 1.64378 2.69927 1.08296 3.79993C0.445404 5.05122 0.445404 6.68924 0.445404 9.9653V18.8629H2.42415V9.9653C2.42415 8.29462 2.42569 7.16062 2.49728 6.28446C2.56697 5.4314 2.69308 4.99847 2.84604 4.69827C3.21715 3.96993 3.8093 3.37778 4.53764 3.00667C4.83784 2.85371 5.27077 2.7276 6.12383 2.65791C6.99998 2.58632 8.13398 2.58478 9.80466 2.58478Z" fill="#001433"/>
<path d="M4.58668 25.2996C6.12395 25.2996 7.29923 25.7261 8.1125 26.579C8.93569 27.4221 9.34728 28.632 9.34728 30.209C9.34728 31.7859 8.93569 33.0009 8.1125 33.8538C7.29923 34.6969 6.12395 35.1184 4.58668 35.1184H0.421152V25.2996H4.58668ZM4.33377 33.1844C5.15696 33.1844 5.76195 32.9364 6.14875 32.4405C6.53555 31.9446 6.72895 31.2008 6.72895 30.209C6.72895 29.2172 6.53555 28.4734 6.14875 27.9775C5.76195 27.4816 5.15696 27.2336 4.33377 27.2336H2.97997V33.1844H4.33377Z" fill="#001433"/>
<path d="M14.4913 27.5312C15.731 27.5312 16.6931 27.8733 17.3774 28.5577C18.0717 29.2321 18.4188 30.1792 18.4188 31.3991C18.4188 32.619 18.0717 33.5712 17.3774 34.2555C16.6931 34.9299 15.731 35.2671 14.4913 35.2671C13.2516 35.2671 12.2846 34.9299 11.5903 34.2555C10.906 33.5712 10.5638 32.619 10.5638 31.3991C10.5638 30.1792 10.906 29.2321 11.5903 28.5577C12.2846 27.8733 13.2516 27.5312 14.4913 27.5312ZM14.4913 29.3313C14.0152 29.3313 13.6632 29.4949 13.435 29.8222C13.2069 30.1495 13.0929 30.6751 13.0929 31.3991C13.0929 32.1232 13.2069 32.6488 13.435 32.9761C13.6632 33.3034 14.0152 33.467 14.4913 33.467C14.9674 33.467 15.3195 33.3034 15.5476 32.9761C15.7757 32.6488 15.8897 32.1232 15.8897 31.3991C15.8897 30.6751 15.7757 30.1495 15.5476 29.8222C15.3195 29.4949 14.9674 29.3313 14.4913 29.3313Z" fill="#001433"/>
<path d="M29.5551 27.5312C30.3088 27.5312 30.9188 27.7593 31.3849 28.2155C31.861 28.6717 32.099 29.3213 32.099 30.1644V35.1184H29.57V30.7446C29.57 29.8916 29.2327 29.4652 28.5583 29.4652C28.1616 29.4652 27.8442 29.609 27.6062 29.8966C27.3682 30.1842 27.2492 30.6008 27.2492 31.1462V35.1184H24.7201V30.7446C24.7201 29.8916 24.3829 29.4652 23.7085 29.4652C23.3316 29.4652 23.0192 29.609 22.7712 29.8966C22.5233 30.1842 22.3993 30.6156 22.3993 31.1909V35.1184H19.8702V27.6799H22.1315L22.2059 29.1081C22.4439 28.5924 22.7762 28.2006 23.2027 27.9328C23.6291 27.665 24.13 27.5312 24.7052 27.5312C25.2705 27.5312 25.7565 27.6601 26.1632 27.918C26.5797 28.1758 26.8772 28.5477 27.0558 29.0337C27.2938 28.5477 27.631 28.1758 28.0674 27.918C28.5137 27.6601 29.0096 27.5312 29.5551 27.5312Z" fill="#001433"/>
<path d="M35.1399 26.8171C34.6242 26.8171 34.2473 26.7228 34.0093 26.5344C33.7812 26.336 33.6671 26.0286 33.6671 25.612C33.6671 25.1856 33.7812 24.8781 34.0093 24.6897C34.2473 24.4913 34.6242 24.3921 35.1399 24.3921C35.6557 24.3921 36.0276 24.4913 36.2557 24.6897C36.4937 24.8781 36.6128 25.1856 36.6128 25.612C36.6128 26.0286 36.4937 26.336 36.2557 26.5344C36.0276 26.7228 35.6557 26.8171 35.1399 26.8171ZM36.4045 35.1184H33.8754V27.6799H36.4045V35.1184Z" fill="#001433"/>
<path d="M41.7604 27.5312C42.8811 27.5312 43.7241 27.7444 44.2895 28.1709C44.8548 28.5973 45.2069 29.1527 45.3457 29.8371L42.9952 30.6107C42.896 29.7577 42.5141 29.3313 41.8497 29.3313C40.8678 29.3313 40.3768 30.0305 40.3768 31.4289C40.3768 32.7877 40.8678 33.467 41.8497 33.467C42.5538 33.467 42.9654 33.0654 43.0844 32.262L45.3606 32.991C45.2515 33.6654 44.8895 34.2158 44.2746 34.6423C43.6696 35.0589 42.8662 35.2671 41.8645 35.2671C40.5752 35.2671 39.5834 34.9299 38.8892 34.2555C38.1949 33.5811 37.8478 32.629 37.8478 31.3991C37.8478 30.1792 38.1899 29.2321 38.8743 28.5577C39.5685 27.8733 40.5306 27.5312 41.7604 27.5312Z" fill="#001433"/>
<path d="M47.9683 26.8171C47.4526 26.8171 47.0757 26.7228 46.8377 26.5344C46.6096 26.336 46.4955 26.0286 46.4955 25.612C46.4955 25.1856 46.6096 24.8781 46.8377 24.6897C47.0757 24.4913 47.4526 24.3921 47.9683 24.3921C48.4841 24.3921 48.856 24.4913 49.0841 24.6897C49.3221 24.8781 49.4412 25.1856 49.4412 25.612C49.4412 26.0286 49.3221 26.336 49.0841 26.5344C48.856 26.7228 48.4841 26.8171 47.9683 26.8171ZM49.2329 35.1184H46.7038V27.6799H49.2329V35.1184Z" fill="#001433"/>
<path d="M53.5325 32.5447C53.5325 32.8819 53.5821 33.1199 53.6813 33.2588C53.7805 33.3976 53.959 33.467 54.2169 33.467C54.4549 33.467 54.7078 33.4224 54.9756 33.3331L54.8119 34.8952C54.6334 35.0043 54.4004 35.0936 54.1127 35.163C53.8251 35.2324 53.5424 35.2671 53.2648 35.2671C52.4713 35.2671 51.8961 35.0837 51.539 34.7167C51.182 34.3398 51.0035 33.7398 51.0035 32.9166V24.526H53.5325V32.5447Z" fill="#001433"/>
<path d="M57.1647 26.8171C56.649 26.8171 56.2721 26.7228 56.0341 26.5344C55.8059 26.336 55.6919 26.0286 55.6919 25.612C55.6919 25.1856 55.8059 24.8781 56.0341 24.6897C56.2721 24.4913 56.649 24.3921 57.1647 24.3921C57.6804 24.3921 58.0524 24.4913 58.2805 24.6897C58.5185 24.8781 58.6375 25.1856 58.6375 25.612C58.6375 26.0286 58.5185 26.336 58.2805 26.5344C58.0524 26.7228 57.6804 26.8171 57.1647 26.8171ZM58.4292 35.1184H55.9002V27.6799H58.4292V35.1184Z" fill="#001433"/>
<path d="M67.4746 31.295C67.4746 31.6322 67.4498 31.9099 67.4002 32.1281H62.3272C62.4066 32.5943 62.5752 32.9364 62.833 33.1546C63.1008 33.3728 63.4529 33.4819 63.8893 33.4819C64.2562 33.4819 64.5538 33.4125 64.7819 33.2736C65.0199 33.1348 65.1786 32.9315 65.2579 32.6637L67.311 33.3183C67.1027 33.953 66.6961 34.439 66.0911 34.7762C65.496 35.1035 64.7621 35.2671 63.8893 35.2671C62.59 35.2671 61.5933 34.9299 60.899 34.2555C60.2147 33.5811 59.8725 32.629 59.8725 31.3991C59.8725 30.1693 60.2097 29.2172 60.8841 28.5428C61.5586 27.8684 62.5156 27.5312 63.7554 27.5312C64.9555 27.5312 65.8729 27.8634 66.5076 28.5279C67.1523 29.1825 67.4746 30.1049 67.4746 31.295ZM63.7405 29.3015C62.9372 29.3015 62.4611 29.7875 62.3123 30.7594H65.1092C64.9902 29.7875 64.5339 29.3015 63.7405 29.3015Z" fill="#001433"/>
<path d="M73.4853 27.5312C73.8225 27.5312 74.0903 27.5857 74.2887 27.6948L74.0209 29.8371C73.9217 29.7776 73.7878 29.728 73.6192 29.6883C73.4506 29.6387 73.2721 29.6139 73.0837 29.6139C72.6076 29.6139 72.2109 29.7676 71.8935 30.0751C71.5761 30.3726 71.4174 30.8041 71.4174 31.3694V35.1184H68.8884V27.6799H71.1199L71.224 29.2866C71.4026 28.7213 71.6803 28.2899 72.0572 27.9923C72.4439 27.6849 72.92 27.5312 73.4853 27.5312Z" fill="#001433"/>
<path d="M3.76754 40.3942C5.40199 40.3942 6.57934 41.0406 7.29961 42.3334L6.34387 43.1091C6.06685 42.4996 5.73442 42.0702 5.34658 41.8209C4.96798 41.5623 4.44625 41.4331 3.78139 41.4331C3.07959 41.4331 2.52554 41.5808 2.11924 41.8763C1.72217 42.1626 1.52364 42.5319 1.52364 42.9844C1.52364 43.2799 1.60213 43.5246 1.75911 43.7185C1.91609 43.9124 2.17465 44.0833 2.53478 44.231C2.90415 44.3695 3.41202 44.4942 4.05842 44.605C5.26809 44.8081 6.12225 45.1129 6.6209 45.5192C7.12878 45.9255 7.38272 46.4888 7.38272 47.209C7.38272 47.7261 7.23497 48.1832 6.93948 48.5803C6.65322 48.9681 6.2423 49.2729 5.70672 49.4945C5.17113 49.7069 4.55244 49.8131 3.85065 49.8131C2.92723 49.8131 2.13771 49.633 1.48208 49.2729C0.835692 48.9127 0.341664 48.4326 0 47.8323L0.955736 47.0567C1.20506 47.6015 1.56981 48.0262 2.04999 48.331C2.5394 48.6265 3.14885 48.7742 3.87835 48.7742C4.59862 48.7742 5.17113 48.6449 5.59591 48.3864C6.02068 48.1186 6.23306 47.7446 6.23306 47.2644C6.23306 46.8581 6.04838 46.5349 5.67901 46.2948C5.30965 46.0548 4.65402 45.8516 3.71214 45.6854C2.49323 45.473 1.62983 45.1683 1.12195 44.7712C0.614072 44.3741 0.360132 43.8201 0.360132 43.1091C0.360132 42.6196 0.498645 42.1672 0.77567 41.7516C1.0527 41.3361 1.44976 41.0083 1.96688 40.7682C2.48399 40.5189 3.08421 40.3942 3.76754 40.3942Z" fill="#001433"/>
<path d="M12.4194 42.6104C13.4628 42.6104 14.2801 42.929 14.871 43.5661C15.4713 44.2033 15.7714 45.0852 15.7714 46.2117C15.7714 47.3383 15.4713 48.2202 14.871 48.8573C14.2801 49.4945 13.4628 49.8131 12.4194 49.8131C11.3759 49.8131 10.5541 49.4945 9.95385 48.8573C9.36287 48.2202 9.06738 47.3383 9.06738 46.2117C9.06738 45.0852 9.36287 44.2033 9.95385 43.5661C10.5541 42.929 11.3759 42.6104 12.4194 42.6104ZM12.4194 43.5661C11.7176 43.5661 11.1681 43.8016 10.7711 44.2726C10.374 44.7435 10.1755 45.3899 10.1755 46.2117C10.1755 47.0336 10.374 47.68 10.7711 48.1509C11.1681 48.6219 11.7176 48.8573 12.4194 48.8573C13.1212 48.8573 13.6706 48.6219 14.0677 48.1509C14.4647 47.68 14.6633 47.0336 14.6633 46.2117C14.6633 45.3899 14.4647 44.7435 14.0677 44.2726C13.6706 43.8016 13.1212 43.5661 12.4194 43.5661Z" fill="#001433"/>
<path d="M20.8465 42.6104C21.539 42.6104 22.1208 42.772 22.5917 43.0952C23.0719 43.4092 23.4459 43.8616 23.7137 44.4526L22.661 44.9513C22.3655 44.0371 21.7514 43.58 20.8188 43.58C20.1262 43.58 19.5814 43.8155 19.1843 44.2864C18.7965 44.7481 18.6026 45.3899 18.6026 46.2117C18.6026 47.0336 18.7965 47.68 19.1843 48.1509C19.5814 48.6126 20.1262 48.8435 20.8188 48.8435C21.3543 48.8435 21.7837 48.7234 22.1069 48.4833C22.4394 48.234 22.6564 47.8785 22.7579 47.4168L23.7829 47.7769C23.5428 48.4233 23.1735 48.9266 22.6748 49.2867C22.1762 49.6376 21.5667 49.8131 20.8465 49.8131C19.803 49.8131 18.9812 49.4945 18.3809 48.8573C17.7899 48.2202 17.4945 47.3383 17.4945 46.2117C17.4945 45.0852 17.7899 44.2033 18.3809 43.5661C18.9812 42.929 19.803 42.6104 20.8465 42.6104Z" fill="#001433"/>
<path d="M26.2963 41.4192C26.047 41.4192 25.8438 41.3453 25.6868 41.1976C25.5391 41.0406 25.4652 40.8375 25.4652 40.5881C25.4652 40.3388 25.5391 40.1403 25.6868 39.9925C25.8438 39.8355 26.047 39.7571 26.2963 39.7571C26.5456 39.7571 26.7441 39.8355 26.8919 39.9925C27.0489 40.1403 27.1273 40.3388 27.1273 40.5881C27.1273 40.8375 27.0489 41.0406 26.8919 41.1976C26.7441 41.3453 26.5456 41.4192 26.2963 41.4192ZM26.8503 49.6745H25.7422V42.7489H26.8503V49.6745Z" fill="#001433"/>
<path d="M35.3636 45.8516C35.3636 46.1102 35.3452 46.3687 35.3082 46.6273H30.0863C30.151 47.3291 30.3818 47.8739 30.7789 48.2617C31.1852 48.6496 31.7069 48.8435 32.3441 48.8435C32.852 48.8435 33.2721 48.7557 33.6045 48.5803C33.9462 48.4049 34.1771 48.1509 34.2971 47.8185L35.2251 48.3033C34.9481 48.7927 34.5787 49.1667 34.117 49.4252C33.6553 49.6838 33.0643 49.8131 32.3441 49.8131C31.3006 49.8131 30.4788 49.4945 29.8786 48.8573C29.2876 48.2202 28.9921 47.3383 28.9921 46.2117C28.9921 45.0852 29.2737 44.2033 29.837 43.5661C30.4095 42.929 31.2175 42.6104 32.261 42.6104C32.9074 42.6104 33.466 42.7535 33.937 43.0398C34.4079 43.3261 34.7634 43.7139 35.0035 44.2033C35.2436 44.6927 35.3636 45.2421 35.3636 45.8516ZM32.261 43.58C31.6515 43.58 31.1575 43.7601 30.7789 44.1202C30.4095 44.4803 30.1833 44.9882 30.1002 45.6438H34.2971C34.2232 44.9974 34.0108 44.4942 33.6599 44.134C33.309 43.7647 32.8427 43.58 32.261 43.58ZM33.7985 39.2861L32.441 41.5993H31.5407L32.5934 39.2861H33.7985Z" fill="#001433"/>
<path d="M41.5054 49.1898C41.0437 49.6053 40.4481 49.8131 39.7186 49.8131C39.1553 49.8131 38.6936 49.6607 38.3334 49.356C37.9825 49.0512 37.8025 48.5849 37.7932 47.957V43.7047H36.4081V42.7489H37.7932V41.0868L38.9013 40.782V42.7489H41.4638V43.7047H38.9013V47.7631C38.9013 48.0955 38.9937 48.3494 39.1784 48.5249C39.3723 48.6911 39.6262 48.7742 39.9402 48.7742C40.3834 48.7742 40.7759 48.6034 41.1175 48.2617L41.5054 49.1898Z" fill="#001433"/>
<path d="M49.012 45.8516C49.012 46.1102 48.9935 46.3687 48.9566 46.6273H43.7347C43.7993 47.3291 44.0302 47.8739 44.4272 48.2617C44.8335 48.6496 45.3553 48.8435 45.9924 48.8435C46.5003 48.8435 46.9205 48.7557 47.2529 48.5803C47.5946 48.4049 47.8254 48.1509 47.9454 47.8185L48.8735 48.3033C48.5965 48.7927 48.2271 49.1667 47.7654 49.4252C47.3037 49.6838 46.7127 49.8131 45.9924 49.8131C44.949 49.8131 44.1271 49.4945 43.5269 48.8573C42.9359 48.2202 42.6404 47.3383 42.6404 46.2117C42.6404 45.0852 42.9221 44.2033 43.4853 43.5661C44.0579 42.929 44.8659 42.6104 45.9093 42.6104C46.5557 42.6104 47.1144 42.7535 47.5853 43.0398C48.0563 43.3261 48.4118 43.7139 48.6519 44.2033C48.892 44.6927 49.012 45.2421 49.012 45.8516ZM45.9093 43.58C45.2999 43.58 44.8058 43.7601 44.4272 44.1202C44.0579 44.4803 43.8316 44.9882 43.7485 45.6438H47.9454C47.8716 44.9974 47.6592 44.4942 47.3083 44.134C46.9574 43.7647 46.4911 43.58 45.9093 43.58ZM47.4468 39.2861L46.0894 41.5993H45.1891L46.2417 39.2861H47.4468Z" fill="#001433"/>
<path d="M90.469 7.51225C90.8088 7.31966 91.2248 7.31966 91.5646 7.51225L93.7953 8.77665L96.0057 10.0763C96.3424 10.2743 96.5504 10.6345 96.5535 11.0251L96.5738 13.5892L96.5535 16.1533C96.5504 16.5438 96.3424 16.9041 96.0057 17.102L93.7953 18.4017L91.5646 19.6661C91.2248 19.8587 90.8088 19.8587 90.469 19.6661L88.2383 18.4017L86.0279 17.102C85.6912 16.9041 85.4832 16.5438 85.4801 16.1533L85.4598 13.5892L85.4801 11.0251C85.4832 10.6345 85.6912 10.2743 86.0279 10.0763L88.2383 8.77665L90.469 7.51225Z" fill="#0066FF"/>
</svg>
