<svg width="18" height="18" viewBox="0 0 18 18" fill="none" xmlns="http://www.w3.org/2000/svg">
<path fill-rule="evenodd" clip-rule="evenodd" d="M15.6657 9C15.6657 8.53976 16.0388 8.16667 16.499 8.16667C16.9593 8.16666 17.3324 8.53976 17.3324 9C17.3324 13.6024 13.6014 17.3333 8.99903 17.3333C6.81041 17.3282 4.71294 16.4563 3.1657 14.9083C1.60378 13.3548 0.720543 11.2461 0.709099 9.04317C0.685191 4.44087 4.39672 0.690581 8.99903 0.666672C9.66407 0.669428 10.3267 0.747708 10.974 0.900005C11.0081 0.906046 11.0418 0.914204 11.0749 0.924433C11.5145 1.06043 11.7607 1.52712 11.6247 1.9668C11.4887 2.40648 11.0221 2.65267 10.5824 2.51667C10.0628 2.39815 9.53191 2.33667 8.99903 2.33334C7.22381 2.32763 5.52094 3.0364 4.27403 4.3C3.03311 5.54834 2.33622 7.23677 2.33542 8.99695C2.33373 12.6789 5.31713 15.665 8.99903 15.6667C12.6809 15.6667 15.6657 12.6819 15.6657 9ZM5.90849 8.40834C6.23525 8.08157 6.76505 8.08157 7.09182 8.40834L9.00015 10.2833L14.1835 4.28334C14.4828 3.9717 14.9707 3.94056 15.3072 4.21161C15.6657 4.5003 15.7222 5.02491 15.4335 5.38334L9.60015 12.05C9.448 12.2234 9.23075 12.326 9.00015 12.3333C8.77865 12.3346 8.56575 12.2477 8.40849 12.0917L5.90849 9.59167C5.58172 9.2649 5.58172 8.73511 5.90849 8.40834Z" fill="#88D498"/>
</svg>
